<svg xmlns="http://www.w3.org/2000/svg" xmlns:xlink="http://www.w3.org/1999/xlink" width="174" height="174" viewBox="0 0 174 174"><title>WA-primary-logo</title><g id="Page-1" stroke="none" stroke-width="1" fill="none" fill-rule="evenodd"><g id="WA-primary-logo" fill="#FFFFFF" fill-rule="nonzero"><path d="M4,69.1 L6.4,69.8 C6.5,69.9 6.6,69.9 6.7,69.9 C7,69.9 7.3,69.8 7.4,69.5 C7.6,69.3 7.6,69 7.7,68.8 L8.2,67.2 C8.3,67 8.4,66.8 8.5,66.6 C8.7,66.3 8.9,66.1 9.3,66.1 C9.4,66.1 9.6,66.1 9.8,66.2 L10.7,66.5 L17.6,68.5 L24.6,70.5 C24.8,70.6 25.1,70.7 25.4,70.7 C25.6,70.7 25.7,70.8 25.9,70.8 C26.1,70.9 26.4,70.7 26.5,70.5 C26.6,70.3 26.7,70.1 26.5,69.7 L27.1,67.7 C27.1,67.5 27.2,67.4 27.2,67.2 C27.2,66.9 27.1,66.7 26.8,66.5 C26.7,66.4 26.5,66.4 26.4,66.3 C25.9,66 25.4,65.9 24.9,65.8 L18,63.8 L11.5,61.9 C11.2,61.8 10.9,61.7 10.6,61.6 C10.1,61.4 9.9,61.1 10,60.5 C10,60.3 10,60.1 10.1,59.9 L10.5,58.7 C10.6,58.5 10.7,58.2 10.7,58 C10.8,57.4 10.7,57.1 10.1,56.9 C9.4,56.6 8.6,56.4 7.8,56.2 C7.6,56.2 7.5,56.2 7.3,56.2 C7.1,56.3 6.9,56.3 6.8,56.5 C6.8,56.6 6.6,57 6.4,57.7 L3.6,67.1 L3.4,67.9 C3.4,68 3.4,68.2 3.4,68.3 C3.3,68.6 3.5,68.8 3.7,69 C3.8,69 3.9,69.1 4,69.1 Z" id="Path"></path><path d="M11.4,47.6 C11.5,47.7 11.6,47.8 11.7,47.9 C12,48 12.2,48.2 12.5,48.4 L20.4,53.3 L29.5,58.9 C30,59.3 30.4,59.2 30.9,58.5 L31,58.4 L32.1,56.6 C32.2,56.5 32.2,56.4 32.3,56.3 C32.5,55.9 32.4,55.5 32.1,55.3 C31.9,55.1 31.6,54.9 31.4,54.8 L28.2,52.8 C27.9,52.7 27.7,52.6 27.5,52.4 C27.1,52.1 26.9,51.7 26.9,51.3 C26.9,51.1 26.9,50.9 26.9,50.7 C26.9,49.9 27,49.1 27.1,48.4 C27.2,48.2 27.1,48.1 27.2,47.9 C27.5,47.3 27.8,47 28.4,47.3 C28.6,47.4 28.9,47.6 29.1,47.7 L32.9,50 C33.3,50.2 33.8,50.5 34.3,50.8 C34.4,50.9 34.6,51 34.7,51 C35,51.1 35.3,51.1 35.5,50.8 C35.5,50.7 35.6,50.6 35.7,50.5 L36.8,48.7 C36.9,48.6 36.9,48.5 37,48.3 C37.1,48 37.1,47.7 36.8,47.5 C36.5,47.3 36.3,47.2 36,47 L19.5,36.8 L18.9,36.4 C18.3,36 18,36.1 17.6,36.7 L16.3,38.7 C16.2,38.8 16.1,38.9 16.1,39 C16,39.3 16,39.5 16.2,39.7 C16.3,39.8 16.5,39.9 16.6,40 C17,40.2 17.4,40.5 17.8,40.8 L21.5,43.1 C22.6,43.7 23.1,43.9 23,45.2 C22.9,46.1 22.9,47 22.8,47.9 C22.8,48.1 22.7,48.2 22.7,48.3 C22.7,48.4 22.6,48.5 22.6,48.6 C22.4,48.9 22.3,48.9 22,49 C21.9,49.1 21.7,49 21.5,48.9 C21.2,48.7 21,48.6 20.7,48.4 L14.8,44.8 L14,44.3 C13.9,44.2 13.7,44.1 13.6,44.1 C13.3,44 13.1,44 12.9,44.2 C12.8,44.3 12.7,44.5 12.6,44.6 L11.4,46.5 C11.3,46.6 11.3,46.7 11.2,46.9 C11.1,47.2 11.2,47.5 11.4,47.6 Z" id="Path"></path><path d="M25,29.1 L25.6,29.7 L32.2,36.6 L38.3,43 C38.6,43.4 38.9,43.7 39.2,44 C39.4,44.1 39.5,44.3 39.7,44.4 C40,44.6 40.3,44.6 40.6,44.4 C40.8,44.2 41,44 41.2,43.8 C43.2,41.9 45.2,40.1 46.9,38.3 C47,38.1 47.1,38 47.3,37.8 C47.4,37.8 47.5,37.7 47.5,37.6 C47.7,37.3 47.7,37.1 47.6,36.9 C47.6,36.8 47.5,36.7 47.4,36.6 C46.8,35.9 46.3,35.4 45.7,34.8 C45.6,34.7 45.5,34.6 45.4,34.5 C45.2,34.3 44.9,34.3 44.7,34.5 C44.5,34.6 44.3,34.8 44.1,35 L41.7,37.2 C41.5,37.4 41.3,37.6 41,37.8 C40.9,37.9 40.8,38 40.6,38.1 C40.2,38.3 39.9,38.3 39.5,38 C39.3,37.9 39.2,37.8 39.1,37.7 L37.5,36.1 C37.4,36 37.3,35.8 37.2,35.7 C36.9,35.4 36.9,35 37.2,34.6 C37.4,34.3 37.6,34.2 37.8,34 C38.3,33.4 38.9,32.9 39.4,32.4 L39.9,31.9 C40.3,31.4 40.3,31.1 39.9,30.6 C39.4,30 38.8,29.4 38.2,28.8 C38.1,28.8 38,28.7 37.9,28.6 C37.7,28.5 37.4,28.5 37.2,28.6 C37.1,28.7 37,28.8 36.9,28.9 C36.7,29.1 36.6,29.2 36.4,29.4 L34.7,31 C34.5,31.2 34.3,31.3 34.1,31.5 C33.8,31.7 33.5,31.7 33.2,31.5 C33,31.4 32.9,31.3 32.7,31.1 L31.1,29.5 C31.1,29.4 31,29.3 30.9,29.2 C30.7,28.8 30.7,28.4 31,28 C31.2,27.8 31.4,27.6 31.6,27.4 L34,25.2 C34.2,25 34.4,24.8 34.6,24.6 C34.7,24.4 34.8,24.3 34.9,24.2 C35,24 35,23.8 34.9,23.6 C34.8,23.4 34.7,23.3 34.6,23.2 C34.1,22.6 33.6,22.1 33,21.5 C32.9,21.4 32.8,21.3 32.7,21.2 C32.5,21.1 32.2,21.1 32,21.2 C31.9,21.2 31.8,21.3 31.7,21.4 L31.2,21.8 L25.4,27.3 L24.9,27.7 C24.9,27.8 24.8,27.9 24.7,28 C24.6,28.2 24.5,28.5 24.7,28.7 C24.8,28.9 24.9,29 25,29.1 Z" id="Path"></path><path d="M56.7,17.8 C57.2,18.1 57.8,18.3 58.3,18.4 L60.2,18.7 C60.7,18.8 61.3,18.8 61.9,18.9 C62.3,19 62.8,19 63.2,19.1 C63.6,19.1 64,19.3 64.4,19.5 C65.2,19.9 65.6,20.6 65.7,21.4 C65.7,21.8 65.7,22.2 65.6,22.6 C65.1,24.2 63.4,25 61.8,24.3 C61.5,24.2 61.2,24 60.9,23.8 C60.8,23.7 60.6,23.6 60.5,23.5 C60.3,23.4 60,23.3 59.8,23.4 C59.7,23.4 59.6,23.4 59.5,23.5 C59,23.8 58.4,24.1 57.9,24.5 C57.8,24.6 57.7,24.7 57.6,24.8 C57.4,25 57.3,25.3 57.5,25.6 C57.6,25.7 57.7,25.9 57.8,26 C58.4,26.6 59,27.2 59.7,27.6 C61.6,28.6 63.5,28.9 65.7,28.3 C67.6,27.4 68.9,26 69.5,24 C69.9,22.7 69.8,21.4 69.5,20 C69.4,19.6 69.2,19.1 69,18.7 C68,16.9 66.6,15.8 64.7,15.2 C64.1,14.9 63.5,14.9 62.8,14.8 C62,14.7 61.1,14.5 60.2,14.4 C59.7,14.3 59.1,14.2 58.6,14 C57.8,13.7 57.4,13 57.4,12.1 C57.4,11.7 57.5,11.2 57.7,10.8 C58.2,9.7 59.8,8.9 61,9.6 C61.2,9.8 61.4,9.8 61.6,9.9 C61.8,10 62,10 62.2,9.9 C62.5,9.7 63.7,8.8 63.9,8.6 L64.2,8.3 C64.4,8 64.4,7.7 64.2,7.4 C63.9,7.1 63.2,6.6 63,6.4 C61.7,5.5 60.2,5.2 58.6,5.5 C56.8,5.8 55.4,6.7 54.3,8.2 C54.2,8.4 54.1,8.6 54,8.8 C53,11 53,13.1 54,15.2 C54.6,16.4 55.5,17.2 56.7,17.8 Z" id="Path"></path><path d="M70.8,6 C70.9,6.3 71.1,6.5 71.4,6.5 C71.7,6.6 71.9,6.5 72.2,6.5 L73.8,6.3 C74,6.3 74.3,6.3 74.5,6.3 C74.9,6.4 75.2,6.6 75.3,6.9 C75.3,7 75.4,7.2 75.4,7.4 L75.5,8.3 L76.4,15.4 L77.3,22.6 C77.3,22.8 77.3,23.1 77.4,23.4 C77.5,23.6 77.4,23.7 77.5,23.9 C77.5,24.1 77.8,24.3 78,24.3 C78.2,24.3 78.4,24.3 78.7,24.4 L80.8,24.1 C81,24.1 81.1,24.1 81.3,24 C81.6,23.9 81.8,23.7 81.8,23.3 C81.8,23.1 81.8,23 81.8,22.8 C81.8,22.3 81.7,21.8 81.6,21.3 L80.7,14.1 L79.8,7.3 C79.7,7 79.7,6.7 79.7,6.4 C79.7,5.9 79.9,5.6 80.5,5.4 C80.7,5.4 80.9,5.3 81.1,5.3 L82.4,5.1 C82.6,5.1 82.9,5.1 83.1,5 C83.8,4.8 84,4.7 83.9,4 C83.8,3.2 83.7,2.4 83.6,1.6 C83.6,1.5 83.6,1.3 83.5,1.2 C83.3,0.9 83.2,0.8 83,0.8 C82.9,0.8 82.5,0.8 81.8,0.9 L72.1,2.1 L71.3,2.2 C71.1,2.2 71,2.3 70.9,2.3 C70.6,2.4 70.5,2.6 70.4,2.9 C70.4,3 70.4,3.1 70.4,3.2 L70.7,5.7 C70.7,5.8 70.8,5.9 70.8,6 Z" id="Path"></path><path d="M86.9,23.1 C87.1,23.1 87.2,23.2 87.3,23.3 L89.5,23.5 C89.6,23.5 89.7,23.5 89.8,23.5 C90.3,23.5 90.6,23.3 90.8,22.9 C90.9,22.7 90.9,22.6 91,22.4 C91.2,21.9 91.3,21.5 91.5,21.1 C91.6,21 91.7,20.7 91.8,20.6 C92,20.3 92.3,20.1 92.7,20.1 C92.9,20.1 93,20.1 93.2,20.1 L96.6,20.5 C96.8,20.5 96.9,20.5 97.1,20.6 C97.4,20.7 97.7,20.9 97.8,21.3 C97.9,21.5 97.9,21.8 98,22 C98,22.4 98.1,22.8 98.2,23.3 C98.2,23.4 98.2,23.6 98.3,23.8 C98.3,24.1 98.6,24.2 98.8,24.3 C99,24.3 99.1,24.4 99.3,24.4 L101.5,24.6 C101.7,24.6 101.8,24.6 102,24.6 C102.3,24.6 102.5,24.4 102.5,24.1 C102.5,24 102.5,23.8 102.5,23.7 L102.4,22.8 C102,19.9 101.5,16.9 101.1,13.9 L99.5,2.8 C99.5,2.7 99.4,2.5 99.4,2.3 C99.2,1.7 99.1,1.5 98.4,1.4 C98,1.4 97.5,1.3 97.1,1.3 C96.8,1.3 96.6,1.2 96.3,1.2 L95.5,1.1 C95.1,1 94.8,1.2 94.6,1.6 C94.5,1.8 94.4,2.1 94.3,2.3 C94,3 93.7,3.8 93.4,4.6 C91.5,9.7 89.6,14.8 87.6,19.8 C87.3,20.5 87,21.2 86.8,21.9 C86.7,22.1 86.6,22.3 86.6,22.6 C86.5,22.8 86.7,23 86.9,23.1 Z M94,14.7 C94.1,14.4 94.2,14.1 94.3,13.8 C94.6,13.2 94.8,12.5 95.1,11.9 C95.2,11.7 95.2,11.4 95.4,11.2 C95.5,11.1 95.6,11 95.7,10.9 C95.8,10.8 96,10.8 96.1,10.9 C96.2,11 96.3,11.1 96.3,11.2 C96.4,11.4 96.5,11.7 96.5,11.9 C96.7,12.8 96.8,13.7 96.9,14.6 C97,14.7 97,14.9 97,15.1 C97,15.7 96.7,16 96.1,16 C95.9,16.1 95.6,16 95.4,16 L94.7,16 C94.5,16 94.4,16 94.3,15.9 C94.1,15.8 93.9,15.5 93.9,15.2 C93.9,15.1 93.9,14.9 94,14.7 Z" id="Shape"></path><path d="M107.5,26.8 C107.7,26.9 107.9,26.9 107.7,27.1 L109.7,27.8 C109.9,27.8 110,27.9 110.2,27.9 C110.6,27.9 110.8,27.8 111,27.5 C111.1,27.4 111.1,27.2 111.2,27.1 C111.5,26.7 111.6,26.2 111.8,25.7 L114.3,18.9 L116.6,12.5 C116.7,12.2 116.8,11.9 116.9,11.6 C117.2,11 117.5,10.9 118.1,11 C118.3,11.1 118.5,11.1 118.7,11.2 L119.9,11.6 C120.1,11.7 120.4,11.8 120.6,11.8 C121.3,11.9 121.5,11.8 121.8,11.2 C122.1,10.5 122.3,9.7 122.6,8.9 C122.7,8.8 122.7,8.7 122.7,8.5 C122.7,8.3 122.7,8.1 122.5,8 C122.4,7.9 122.1,7.7 121.4,7.5 L112.2,4.2 L111.5,3.9 C111.4,3.8 111.2,3.8 111.1,3.8 C110.8,3.8 110.6,3.9 110.4,4.1 C110.4,4.2 110.3,4.3 110.3,4.4 L109.5,6.8 C109.4,6.9 109.4,7 109.4,7.1 C109.3,7.4 109.4,7.6 109.7,7.8 C109.9,7.9 110.2,8 110.4,8.1 L111.9,8.7 C112.1,8.7 112.3,8.9 112.5,9 C112.8,9.2 113,9.6 112.9,9.9 C112.9,10 112.9,10.2 112.8,10.4 L112.5,11.3 L110.1,18.1 L107.6,24.9 C107.5,25.2 107.3,25.4 107.3,25.7 C107.3,25.9 107.2,26 107.2,26.2 C107.2,26.4 107.3,26.7 107.5,26.8 Z" id="Path"></path><path d="M119.2,30.5 C119.1,30.6 119,30.8 118.9,31 C118.8,31.3 118.8,31.6 119.1,31.8 C119.3,32 119.6,32.1 119.8,32.3 C122,33.9 124.3,35.5 126.3,37.3 C126.4,37.4 126.6,37.5 126.8,37.6 C126.9,37.6 127,37.7 127.1,37.7 C127.4,37.8 127.6,37.7 127.8,37.6 C127.9,37.5 127.9,37.4 128,37.3 C128.5,36.7 129,36 129.4,35.3 C129.5,35.2 129.6,35.1 129.6,35 C129.7,34.8 129.6,34.5 129.4,34.3 C129.2,34.1 129,34 128.8,33.8 L126.1,32 C125.9,31.9 125.6,31.7 125.4,31.5 C125.3,31.4 125.1,31.2 125,31.1 C124.8,30.8 124.7,30.4 124.9,30 C124.9,29.9 125,29.7 125.1,29.6 L126.4,27.7 C126.5,27.5 126.6,27.4 126.7,27.3 C127,27 127.4,26.9 127.8,27.1 C128.1,27.2 128.3,27.4 128.5,27.5 C129.1,27.9 129.8,28.4 130.4,28.8 L131,29.2 C131.6,29.6 131.9,29.5 132.3,29 C132.8,28.3 133.3,27.6 133.7,26.9 C133.8,26.7 133.9,26.6 133.9,26.5 C134,26.2 133.9,26 133.8,25.8 C133.7,25.7 133.6,25.6 133.5,25.5 C133.3,25.4 133.1,25.2 132.9,25.1 L131,23.8 C130.8,23.7 130.6,23.5 130.4,23.3 C130.1,23.1 130.1,22.7 130.2,22.4 C130.3,22.2 130.4,22 130.5,21.8 L131.8,19.9 C131.8,19.8 131.9,19.7 132,19.6 C132.3,19.2 132.7,19.2 133.2,19.4 C133.4,19.5 133.7,19.6 133.9,19.8 L136.6,21.6 C136.9,21.8 137.1,22 137.4,22.1 C137.5,22.2 137.7,22.2 137.8,22.3 C138,22.4 138.2,22.3 138.4,22.2 C138.5,22.2 138.6,22 138.7,21.9 C139.1,21.2 139.6,20.6 140,19.9 C140,19.8 140.1,19.6 140.2,19.5 C140.2,19.2 140.2,19 140,18.8 C139.9,18.7 139.8,18.6 139.7,18.5 L139.2,18.1 L132.6,13.6 L132.1,13.2 C132,13.1 131.9,13 131.8,13 C131.5,12.9 131.3,12.9 131.1,13.1 C131,13.2 130.9,13.4 130.8,13.5 L130.3,14.2 L124.9,22.1 L119.9,29.4 C119.7,29.8 119.4,30.1 119.2,30.5 Z" id="Path"></path><path d="M141.8,54.7 C143.8,56.6 146.9,57.2 149.6,55.8 C150,55.6 150.3,55.4 150.7,55.2 L154.3,52.9 L157.8,50.7 C158.1,50.5 158.4,50.3 158.7,50.1 C159.2,49.8 159.5,49.4 159.9,49.1 C162.2,46.8 162.7,42.9 160.1,39.9 C158.1,37.7 155,37.1 152.3,38.3 C151.9,38.5 151.4,38.7 151,39 C150.4,39.3 149.9,39.7 149.3,40.1 L143.5,43.7 C143,44 142.5,44.3 142,44.7 C140.9,45.7 140.1,46.9 139.8,48.4 C139.4,50.8 140,53 141.8,54.7 Z M144.6,48.6 C144.8,48.3 145,48 145.3,47.8 C145.5,47.6 145.8,47.5 146,47.3 L153.2,42.8 C153.5,42.6 153.8,42.5 154.1,42.3 C154.7,42 155.3,42 155.9,42.2 C157.4,42.7 158,44.5 157.1,45.8 C156.9,46 156.7,46.3 156.4,46.5 C156.2,46.7 155.9,46.8 155.7,47 L152.1,49.2 L148.5,51.4 C148.3,51.6 148,51.8 147.7,51.9 C147.3,52.1 147,52.2 146.6,52.2 C145.6,52.2 144.9,51.9 144.6,51 C144.1,50.2 144.1,49.4 144.6,48.6 Z" id="Shape"></path><path d="M148,62.1 L147.1,62.4 C147,62.4 146.8,62.5 146.7,62.6 C146.5,62.7 146.4,62.9 146.4,63.2 C146.5,63.4 146.5,63.5 146.7,63.8 L147.4,66 C147.4,66.2 147.4,66.3 147.5,66.4 C147.6,66.7 147.9,66.8 148.2,66.8 C148.4,66.8 148.5,66.7 148.7,66.7 L149.5,66.5 L154.6,64.9 C154.9,64.8 155.2,64.7 155.5,64.7 L155.9,64.6 C156.2,64.6 156.4,64.7 156.6,65 C156.6,65.1 156.8,65.2 156.8,65.4 L157,66.1 C157.2,66.8 157.5,67.5 157.7,68.3 C157.8,68.5 157.9,68.8 158,69 C158.2,69.2 158.3,69.3 158.6,69.3 C158.8,69.3 159,69.3 159.2,69.2 L161.1,68.6 C161.3,68.6 161.5,68.5 161.6,68.4 C161.9,68.3 162.1,68 162,67.7 C161.9,67.5 161.9,67.2 161.8,67 L161,64.5 C160.9,64.2 160.8,64 160.8,63.7 C160.7,63.4 160.9,63.1 161.2,62.9 C161.4,62.8 161.6,62.7 161.8,62.6 L163.9,61.9 C164,61.8 164.2,61.8 164.4,61.8 C164.8,61.8 165.2,61.9 165.4,62.3 C165.5,62.6 165.6,62.8 165.7,63.1 C166.2,64.1 166.4,65.2 166.7,66.2 L166.9,66.9 C166.9,67.1 167,67.2 167.1,67.4 C167.2,67.7 167.5,67.8 167.8,67.8 C168,67.8 168.2,67.8 168.4,67.7 L170.2,67.1 C170.3,67 170.5,66.9 170.6,66.9 C171,66.7 171.2,66.4 171.1,66 C171,65.7 171,65.5 170.9,65.3 L168.4,57.4 C168.4,57.1 168.3,56.9 168.2,56.7 C168.2,56.6 168.2,56.5 168.1,56.4 C168,56.3 167.8,56.2 167.6,56.2 C167.5,56.2 167.3,56.2 167.2,56.2 L166.2,56.5 L157.1,59.3 L148,62.1 Z" id="Path"></path><path d="M35.7,124.2 L34.5,121.8 C34.3,121.4 33.8,121.2 33.3,121.3 L25.1,123.9 C24.6,124 24.3,123.5 24.7,123.2 L31.6,118 C32,117.7 32.1,117.2 31.9,116.7 L30.8,114.6 C30.6,114.2 30.1,114 29.6,114.1 L21.4,116.7 C21,116.8 20.7,116.2 21,116 L27.9,110.8 C28.3,110.5 28.4,110 28.2,109.5 L27,107.1 C26.7,106.6 26,106.4 25.5,106.8 L8.7,119.6 C8.3,119.9 8.2,120.4 8.3,120.9 L9.7,123.6 C9.9,124 10.4,124.2 10.9,124.1 L19,121.6 C19.5,121.4 19.8,122 19.4,122.3 L12.6,127.5 C12.2,127.8 12.1,128.3 12.3,128.7 L13.7,131.4 C13.9,131.8 14.4,132 14.9,131.9 L35.1,125.6 C35.7,125.4 36,124.8 35.7,124.2 Z" id="Path"></path><path d="M43.1,132.6 C43.5,132.1 43.4,131.8 43,131.3 C42.7,130.9 42.4,130.6 42.1,130.3 C42,130.1 41.8,129.9 41.6,129.7 L41,129.1 C40.7,128.8 40.4,128.8 40,128.9 C39.8,129.1 39.5,129.2 39.3,129.3 C38.6,129.7 37.8,130.1 37.1,130.5 C32.3,133.1 27.5,135.7 22.8,138.3 C22.1,138.7 21.4,139 20.8,139.4 C20.6,139.5 20.4,139.6 20.2,139.8 C20,139.9 20,140.2 20.1,140.4 C20.2,140.6 20.3,140.7 20.3,140.9 L21.8,142.5 C21.9,142.6 21.9,142.6 22,142.7 C22.3,143 22.7,143.1 23.1,142.9 C23.3,142.9 23.4,142.8 23.6,142.7 C24,142.5 24.4,142.3 24.8,142.1 C25,142 25.2,141.9 25.4,141.9 C25.8,141.8 26.1,141.9 26.4,142.1 C26.6,142.2 26.7,142.4 26.8,142.5 L29.2,145 C29.3,145.1 29.4,145.2 29.5,145.4 C29.7,145.7 29.7,146 29.6,146.4 C29.5,146.6 29.4,146.8 29.3,147 C29,147.3 28.8,147.7 28.6,148.1 C28.5,148.2 28.4,148.4 28.4,148.6 C28.3,148.8 28.3,149.1 28.5,149.3 C28.6,149.4 28.7,149.6 28.8,149.7 L30.3,151.3 C30.4,151.4 30.6,151.5 30.7,151.6 C30.9,151.7 31.2,151.7 31.4,151.5 C31.5,151.3 31.6,151.2 31.7,151.1 L32.2,150.4 C33.7,147.8 35.3,145.3 36.9,142.7 L42.8,133.1 C42.9,132.9 43,132.8 43.1,132.6 Z M35,137.5 C34.9,137.7 34.8,137.9 34.7,138.1 C34.3,138.9 33.8,139.6 33.3,140.4 C33.2,140.6 33.1,140.7 33,140.9 C32.6,141.3 32.2,141.4 31.7,141 C31.5,140.8 31.4,140.7 31.2,140.5 L30.7,140 C30.6,139.9 30.5,139.8 30.5,139.7 C30.4,139.4 30.4,139.1 30.6,138.9 C30.7,138.8 30.8,138.7 31,138.6 C31.3,138.4 31.5,138.2 31.8,138.1 C32.4,137.7 33,137.4 33.6,137.1 C33.8,137 34,136.9 34.3,136.8 C34.4,136.8 34.6,136.8 34.7,136.8 C34.9,136.8 35,137 35,137.1 C35.1,137.2 35.1,137.4 35,137.5 Z" id="Shape"></path><path d="M55.8,146.2 C56.1,146.2 56.4,146 56.5,145.7 C56.6,145.3 56.7,144.4 56.7,144.1 C56.6,142.5 56,141.1 54.8,140 C53.5,138.8 51.9,138.2 50.1,138.2 C49.9,138.2 49.6,138.3 49.4,138.3 C47.1,138.8 45.4,140 44.3,142.1 C43.7,143.3 43.5,144.5 43.8,145.8 C43.9,146.3 44.1,146.9 44.3,147.4 L45.1,149.1 C45.3,149.6 45.6,150.1 45.9,150.6 C46.1,151 46.3,151.4 46.5,151.8 C46.6,152.2 46.7,152.6 46.8,153 C47,153.8 46.7,154.5 46.1,155.1 C45.8,155.4 45.5,155.6 45.1,155.8 C43.5,156.4 41.9,155.5 41.5,153.8 C41.4,153.5 41.4,153.1 41.4,152.8 C41.4,152.6 41.4,152.5 41.4,152.3 C41.3,152.1 41.2,151.8 41,151.7 C40.9,151.7 40.8,151.6 40.7,151.6 C40.1,151.4 39.5,151.1 38.9,150.9 C38.8,150.8 38.6,150.8 38.5,150.8 C38.2,150.8 37.9,150.9 37.8,151.2 C37.7,151.4 37.6,151.5 37.6,151.7 C37.4,152.6 37.3,153.4 37.4,154.2 C37.7,156.4 38.6,158 40.5,159 C42.3,160.1 44.2,160.3 46.2,159.6 C47.4,159.1 48.5,158.3 49.4,157.2 C49.7,156.8 50,156.4 50.2,156 C51.1,154.2 51.1,152.4 50.5,150.5 C50.3,149.8 49.9,149.3 49.6,148.7 C49.1,148 48.7,147.2 48.3,146.4 C48.1,145.9 47.8,145.4 47.7,144.9 C47.4,144.1 47.8,143.3 48.5,142.8 C48.9,142.5 49.3,142.4 49.8,142.3 C51,142.1 52.5,142.9 52.7,144.3 C52.8,144.6 52.8,144.8 52.9,145 C53,145.2 53.1,145.4 53.3,145.5 C53.7,145.6 55.1,146 55.4,146.1 L55.8,146.2 Z" id="Path"></path><path d="M72.9,148.5 L70.6,147.7 C70.4,147.7 70.3,147.6 70.2,147.6 C70,147.6 69.7,147.7 69.6,147.9 C69.5,148 69.4,148.1 69.4,148.3 C69.3,148.7 69.1,149.2 68.9,149.7 L67.5,153.8 C67.1,154.9 67.1,155.6 65.8,155.7 C64.9,155.8 64,156 63.1,156.1 C62.9,156.1 62.8,156.1 62.7,156.1 C62.6,156.1 62.5,156.1 62.4,156.1 C62.1,156 62,155.8 61.9,155.6 C61.8,155.4 61.8,155.2 61.9,155 C62,154.7 62.1,154.4 62.2,154.1 L64.4,147.5 L64.7,146.7 C64.8,146.6 64.8,146.4 64.8,146.3 C64.8,146 64.7,145.8 64.5,145.6 C64.4,145.5 64.2,145.5 64.1,145.4 L62,144.7 C61.8,144.6 61.7,144.6 61.5,144.6 C61.2,144.5 60.9,144.6 60.8,144.9 C60.8,145 60.7,145.1 60.6,145.3 C60.5,145.6 60.4,145.9 60.3,146.2 L57.3,155 L53.9,165.1 C53.7,165.7 53.9,166.1 54.4,166.3 L54.6,166.4 L56.6,167.1 C56.7,167.1 56.9,167.2 57,167.2 C57.4,167.4 57.7,167.2 57.9,166.8 C58,166.5 58.1,166.3 58.2,166 L59.4,162.4 C59.5,162.2 59.6,161.9 59.7,161.7 C59.9,161.3 60.2,161 60.6,160.9 C60.8,160.9 61,160.8 61.2,160.8 C62,160.7 62.7,160.5 63.5,160.5 C63.7,160.5 63.8,160.5 64,160.5 C64.7,160.6 65.1,160.8 64.9,161.5 C64.9,161.8 64.8,162 64.7,162.3 L63.3,166.5 C63.1,167 63,167.6 62.8,168.1 C62.7,168.2 62.7,168.4 62.7,168.5 C62.7,168.9 62.8,169.2 63.1,169.3 C63.2,169.4 63.3,169.5 63.4,169.5 L65.4,170.2 C65.6,170.2 65.7,170.3 65.9,170.3 C66.2,170.3 66.6,170.2 66.7,169.9 C66.8,169.6 66.9,169.3 67,169 L73.3,150.3 L73.5,149.6 C73.7,149 73.6,148.7 72.9,148.5 Z" id="Path"></path><path d="M81.7,149.6 C81.6,149.6 81.6,149.6 81.5,149.6 L79.1,149.3 C79,149.3 78.8,149.3 78.7,149.3 C78.4,149.3 78.2,149.5 78.1,149.7 C78.1,149.9 78,150 78,150.2 L77.9,151 L75.6,170.1 L75.5,171 C75.5,171.1 75.5,171.2 75.5,171.4 C75.5,171.6 75.7,171.8 75.9,171.9 C76,171.9 76.2,171.9 76.5,171.9 L78.8,172.2 C78.9,172.2 79.1,172.2 79.2,172.2 C79.4,172.1 79.6,172 79.7,171.8 C79.7,171.6 79.8,171.5 79.8,171.4 C79.9,171.2 79.9,170.9 79.9,170.6 L81,161 L82.3,151.8 L82.4,151 C82.4,150.8 82.4,150.7 82.4,150.5 C82.3,149.9 82.2,149.7 81.7,149.6 Z" id="Path"></path><path d="M101.3,149.8 C101.3,149.6 101.2,149.5 101.2,149.3 C101.1,149 100.8,148.8 100.5,148.8 L100.3,148.8 L97.6,149.1 L97.5,149.1 C97.1,149.1 96.9,149.4 96.9,149.8 C96.9,150.1 97,150.4 97,150.7 L97.5,156 C97.6,156.3 97.6,156.6 97.6,156.9 C97.6,157.1 97.6,157.3 97.5,157.4 C97.3,157.7 97.1,157.9 96.8,157.7 C96.7,157.6 96.6,157.5 96.5,157.4 C96.3,157.3 96.2,157.1 96.1,156.9 C95.5,156 94.8,155.1 94.2,154.1 C93.5,152.9 92.7,151.8 91.9,150.7 C91.8,150.5 91.6,150.3 91.4,150.1 C91.2,149.9 91,149.8 90.7,149.8 C90.6,149.8 90.5,149.8 90.4,149.8 L87.1,150.1 C87,150.1 86.9,150.2 86.8,150.2 C86.6,150.3 86.4,150.5 86.4,150.7 C86.4,150.8 86.4,151 86.4,151.1 L86.5,152 C86.8,155.2 87.1,158.4 87.4,161.6 C87.7,164.8 88.1,167.9 88.4,171.1 L88.5,172 C88.5,172.1 88.6,172.2 88.6,172.4 C88.7,172.7 88.9,172.9 89.2,172.9 C89.4,172.9 89.6,172.9 89.8,173 L92,172.8 C92.2,172.8 92.3,172.7 92.5,172.7 C92.8,172.6 93,172.4 93,172.1 C93,172 93,171.8 93,171.7 L92.9,170.8 L92,161.2 L91.9,160.2 C91.9,160 91.9,159.8 91.9,159.6 C91.9,159.5 91.9,159.3 92,159.2 C92.1,159.1 92.3,159 92.5,159.1 C92.6,159.2 92.7,159.3 92.8,159.4 C93,159.6 93.2,159.8 93.3,160 C94.2,161.3 95.1,162.7 96,164 L98.2,167.1 C98.5,167.6 98.7,168.1 98.8,168.8 L98.9,169.4 L99,170.7 C99,170.9 99.1,171.1 99.1,171.3 C99.2,171.6 99.4,171.8 99.7,171.8 C99.9,171.8 100,171.8 100.2,171.8 L102.3,171.6 C102.5,171.6 102.6,171.5 102.8,171.5 C103.1,171.4 103.2,171.2 103.3,170.8 C103.3,170.7 103.3,170.6 103.3,170.4 C103.3,170.2 103.3,170 103.3,169.7 L101.4,150.5 C101.4,150.3 101.3,150.1 101.3,149.8 Z" id="Path"></path><path d="M125.7,162.5 C125.1,161 124.5,159.4 123.9,157.9 L122.7,155 L121.9,153 C121.8,152.8 121.7,152.6 121.6,152.4 C121.4,152.1 121.1,152 120.8,152.1 C120.7,152.1 120.5,152.2 120.4,152.2 L118.4,153 C118.3,153.1 118.1,153.1 118,153.2 C117.7,153.4 117.7,153.6 117.7,153.9 C117.7,154.1 117.7,154.3 117.8,154.4 C118,154.9 118.1,155.3 118.3,155.8 L119.8,159.6 L120.1,160.4 C120.1,160.6 120.2,160.7 120.2,160.9 C120.3,161.3 120.1,161.7 119.7,161.9 C119.5,162 119.3,162.1 119,162.1 C118.1,162.2 117.3,162.2 116.5,161.9 C115.5,161.6 114.7,161.1 114,160.4 C112.1,158.6 110.8,155.8 111.3,152.9 C111.4,152.3 111.6,151.6 111.9,151 C112.6,149.6 113.8,148.9 115.2,148.3 C115.3,148.2 115.4,148.2 115.5,148.2 C116.1,148.1 116.2,147.8 116.3,147.2 C116.4,146.4 116.5,145.6 116.5,144.8 C116.5,144.6 116.5,144.5 116.5,144.3 C116.4,144.1 116.3,144 116.1,143.9 C116,143.9 115.9,143.9 115.8,143.9 C115.6,143.9 115.3,143.8 115.1,143.9 C113,144.4 111.1,145.2 109.6,146.7 C108.5,147.8 107.8,149.2 107.3,150.7 C106.6,152.7 106.6,154.8 107.1,156.9 C107.3,158.2 107.8,159.4 108.5,160.5 C109.7,162.6 111.3,164.2 113.4,165.3 C115.8,166.5 118.2,166.9 120.8,166 C122.2,165.5 123.6,164.9 125.2,164.4 C125.4,164.3 125.5,164.2 125.7,164.1 C126,163.9 126.1,163.6 126,163.3 C125.9,163 125.8,162.8 125.7,162.5 Z" id="Path"></path><path d="M138.5,154.8 C138.3,154.3 137.9,153.9 137.6,153.5 L133.4,147.6 L129.4,142.1 C129.2,141.8 129,141.5 128.9,141.3 C128.6,140.8 128.7,140.4 129.1,140 C129.3,139.8 129.4,139.7 129.6,139.6 L130.6,138.9 C130.7,138.8 130.9,138.7 131.1,138.5 C131.6,138 131.7,137.8 131.3,137.2 C130.9,136.5 130.4,135.9 129.9,135.2 C129.9,135.1 129.7,135 129.6,134.9 C129.4,134.8 129.2,134.7 129,134.8 C128.9,134.8 128.5,135 127.9,135.4 L119.9,141.1 L119.3,141.6 C119.2,141.7 119.1,141.8 119,141.9 C118.8,142.1 118.8,142.3 118.9,142.6 C119,142.7 119,142.8 119.1,142.9 L120.6,144.9 C120.6,144.9 120.7,145 120.8,145.1 C121,145.3 121.3,145.3 121.6,145.2 C121.9,145.1 122.1,144.9 122.3,144.8 L123.6,143.8 C123.8,143.7 124,143.6 124.2,143.5 C124.6,143.3 124.9,143.4 125.2,143.6 C125.4,143.7 125.5,143.8 125.6,144 L126.2,144.8 L130.4,150.6 L134.6,156.5 C134.7,156.8 134.9,157 135.1,157.2 C135.2,157.3 135.3,157.5 135.4,157.6 C135.6,157.8 135.9,157.8 136.1,157.7 C136.3,157.6 136.4,157.5 136.5,157.5 L138.2,156.3 C138.4,156.2 138.5,156.1 138.6,156 C138.8,155.8 138.9,155.5 138.7,155.2 C138.7,155.1 138.6,154.9 138.5,154.8 Z" id="Path"></path><path d="M151.1,133.7 L147.9,130.9 L144.8,128.2 C144.6,128 144.3,127.7 144,127.5 C143.7,127.2 143.2,127 142.8,126.7 C140,125.1 136,125.8 133.9,129.1 C132.3,131.6 132.6,134.7 134.5,137 C134.9,137.4 135.2,137.8 135.6,138.1 C136.1,138.5 136.6,139 137.1,139.4 L142.2,143.9 C142.6,144.3 143.1,144.7 143.6,145 C144.9,145.9 146.3,146.2 147.8,146.1 C150.3,145.9 152.1,144.7 153.1,142.4 C154.4,140 154.1,136.8 152,134.6 C151.7,134.3 151.4,134 151.1,133.7 Z M148.9,141 C148.3,141.7 147.5,141.9 146.6,141.7 C146.2,141.6 145.9,141.4 145.6,141.2 C145.3,141.1 145.1,140.9 144.9,140.7 L138.5,135 C138.2,134.7 137.9,134.5 137.7,134.2 C137.3,133.7 137.1,133.1 137.1,132.5 C137.1,130.9 138.7,129.8 140.2,130.3 C140.5,130.4 140.8,130.6 141.1,130.8 C141.4,130.9 141.6,131.1 141.8,131.3 L145,134.1 L148.2,136.9 C148.4,137.2 148.7,137.4 148.9,137.6 C149.2,137.9 149.4,138.2 149.5,138.6 C149.8,139.5 149.7,140.3 148.9,141 Z" id="Shape"></path><path d="M167.5,117.3 C167.4,117.2 167.2,117.2 167.1,117.1 C166.9,117 166.7,116.9 166.5,116.8 L149.1,108.4 C148.8,108.3 148.6,108.2 148.4,108.1 C148.3,108 148.2,107.9 148,107.9 C147.7,107.8 147.4,107.9 147.2,108.2 L147.1,108.3 L145.9,110.8 L145.9,110.9 C145.7,111.3 145.8,111.6 146.2,111.8 C146.4,111.9 146.7,112.1 147,112.2 L151.8,114.5 C152,114.6 152.3,114.8 152.6,114.9 C152.8,115 152.9,115.1 153,115.2 C153.2,115.4 153.2,115.8 152.9,115.9 C152.7,115.9 152.6,116 152.4,116 C152.2,116.1 152,116.1 151.8,116.1 C150.7,116.1 149.5,116.3 148.4,116.3 C147,116.3 145.7,116.4 144.3,116.5 C144,116.5 143.7,116.5 143.5,116.6 C143.2,116.7 143,116.8 142.9,117 C142.9,117.1 142.8,117.1 142.8,117.2 L141.4,120.2 C141.3,120.3 141.3,120.4 141.3,120.5 C141.3,120.7 141.3,121 141.5,121.1 C141.7,121.1 141.8,121.2 141.9,121.3 L142.7,121.7 C145.6,123.1 148.5,124.5 151.4,125.9 C154.3,127.3 157.1,128.6 160,130 L160.9,130.4 C161,130.5 161.1,130.6 161.3,130.6 C161.6,130.6 161.8,130.5 162,130.3 C162.1,130.2 162.1,130 162.2,129.7 L163.2,127.7 C163.3,127.6 163.4,127.5 163.4,127.3 C163.4,127 163.3,126.8 163.1,126.6 C163,126.5 162.9,126.5 162.8,126.4 L162,126 L153.3,121.8 L152.4,121.4 C152.2,121.3 152.1,121.2 151.9,121.1 C151.8,121 151.7,120.9 151.6,120.8 C151.5,120.7 151.5,120.4 151.7,120.3 C151.8,120.3 152,120.2 152.1,120.2 C152.4,120.2 152.6,120.1 152.9,120.1 C154.6,119.9 156.2,119.9 157.8,119.8 L161.6,119.6 C162.2,119.6 162.8,119.7 163.4,120 L163.9,120.3 L165.1,120.9 C165.3,121 165.5,121 165.7,121.1 C166,121.2 166.2,121.1 166.4,120.9 C166.5,120.7 166.6,120.5 166.7,120.4 L167.6,118.5 C167.7,118.4 167.8,118.3 167.8,118.1 C167.9,117.8 167.8,117.5 167.5,117.3 Z" id="Path"></path><path d="M89.5,111.9 C89.8,111.6 90.4,111.5 90.8,111.4 C91.7,111.2 92.6,111.1 93.5,111 C93.8,110.9 94.2,110.7 94.3,110.5 C94.8,109.8 95.2,109.6 95.8,109.8 C96.7,110.1 97.6,109.9 98.5,109.5 C98.8,109.4 99.2,109.3 99.5,109.4 C100.2,109.6 100.8,109.4 101.2,108.8 C101.5,108.4 101.9,108.2 102.4,108.2 C104.3,108.2 106.3,108.2 108.2,108.2 C112.6,108.2 117,108.2 121.3,108.2 C121.9,108.2 122.5,108.1 123.2,108.1 C123,106.9 123.1,106.4 123.3,105.9 C123.4,105.7 123.4,105.3 123.3,105 C123.2,104.6 123,104.3 122.7,104 C122.2,103.4 122.1,102.8 122.4,102 C122.6,101.4 122.7,100.8 122.4,100.2 C122.3,100.1 122.3,99.9 122.3,99.7 C122.2,97.2 122.2,94.7 122.1,92.2 C122,88.4 122,84.5 121.9,80.7 C121.8,75.1 121.7,69.6 121.6,64 C121.6,63.4 121.6,62.8 121.6,62.1 C102.4,62.4 83.4,62 64.5,61.2 C64.2,61.2 64.2,61.4 64.1,61.7 C64.1,61.8 64.3,62.9 64.3,63.2 C64.3,63.4 64.5,63.6 64.5,63.7 C64.6,63.9 64.7,64.1 64.8,64.2 C64.9,64.4 65.1,64.5 65.2,64.7 C65.4,65.1 65.6,65.3 66.1,65 C66.2,64.9 66.5,65 66.6,65.1 C66.7,65.2 66.8,65.5 66.8,65.5 C66.4,66.1 66.8,66.1 67.1,66.2 C67,66.5 66.9,66.8 67,67 C67.2,67.7 67.3,67.7 66.5,67.8 C66.5,68.4 67.3,68.8 66.7,69.4 C66.3,69.4 66.4,68.5 65.8,68.8 C65.6,68.7 65.3,68.6 65.2,68.6 C64.9,68.8 65,69.5 65.3,69.7 C66,70.2 66.7,70.7 67.3,71.3 C67.5,71.4 67.5,71.8 67.5,72 C67.5,72.1 67.1,72.2 66.9,72.2 C66.4,72.2 66,72.5 66,72.9 C65.9,73.6 66.9,74.9 67.6,75.1 C68,75.1 66.6,73.6 67.5,72.8 C67.7,72.7 67.8,73.1 67.8,73.2 C68,73.8 68.1,74.3 68.3,74.9 C68.4,75.1 68.6,75.4 68.8,75.5 C69.4,75.9 69.5,76.4 68.8,76.8 C67.7,77.5 67.4,78.6 67.3,79.8 C67.3,80.1 67.1,80.4 67.1,80.7 C67,80.9 67,81.2 67,81.4 C67,81.8 67,82.3 67,82.7 C67,83.1 67,83.5 67.2,83.8 C67.4,84.2 67.6,84.4 67.1,84.7 C67,84.8 67,85 67,85.2 C66.9,85.6 66.9,86.1 66.8,86.5 C66.6,87 66.5,87.2 66.1,86.8 C66,86.7 66,86.3 65.8,86.5 C65.4,86.9 65.1,87.3 64.8,87.6 C64.8,87.6 64.8,87.7 64.7,87.7 C64.8,87.4 65,87.1 65,86.8 C65.1,85.9 65.1,85.1 65.6,84.3 C65.8,84 65.8,83.7 65.5,83.4 C65.4,83.3 65.4,83.2 65.4,83.1 C65.4,82.6 65.1,82.5 64.7,82.6 C64.3,82.7 63.5,81.8 63.8,81.9 C64.1,82 64.2,82.1 64.4,82.1 C64.5,82.2 64.7,82.3 64.8,82.2 C64.9,82.1 64.9,81.8 64.9,81.7 C64.8,81.4 64.6,81.2 64.6,80.9 C64.6,80.7 64.5,80.2 64.7,80.3 C65,80.4 65.2,80.5 65.3,80.5 C65.7,80.4 66.5,80.2 66.5,79.9 C66.3,79.1 66.1,78.2 65.9,77.3 C65.9,77.1 65.7,77.1 65.6,77.3 C65.5,77.5 65.5,77.7 65.4,77.9 C65.3,78.1 65.2,78.4 65,78.5 C64.4,78.7 64,79.1 64,79.7 C63.9,80.6 63.4,81.1 62.5,81.3 C61.9,81.5 61.4,81.8 61.1,82.5 C61,82.8 60.8,83.1 60.6,83.4 C60.4,83.8 60.1,84.2 59.9,84.6 C59.6,85.2 59.9,85.5 60.6,85.4 C60.9,85.3 61.2,85.1 61.6,84.9 C61.8,84.8 62.2,84.2 62.2,84.5 C62.1,85.1 61.9,85.4 61.5,85.6 C61.1,85.7 60.7,85.8 60.3,85.9 C59.6,86 59.3,85.7 59.4,84.9 C59.7,83.5 60.5,82.4 61.6,81.6 C62.1,81.3 62.3,80.9 62.4,80.3 C62.4,80 62.4,79.7 62.5,79.4 C62.5,79.1 62.6,78.7 62.7,78.4 C62.7,78.4 62.7,78.3 62.8,78.3 C62.9,78.2 63.1,78.2 63.2,78.3 C63.3,78.4 63.3,78.4 63.3,78.5 C63.3,78.7 63.2,78.9 63.2,79.1 C63.2,79.3 63.1,79.5 63.1,79.7 C63.1,79.9 63.2,80.1 63.4,80.1 C63.6,80.1 63.7,79.9 63.8,79.8 C63.9,79.7 63.9,79.5 63.9,79.3 C64,79 64.1,78.6 64.3,78.3 C64.8,77.5 64.8,77 64.4,76.1 C64.2,75.7 64.1,75.2 64,74.8 C64,74.6 64,74.4 63.9,74.2 C63.8,73.7 63.5,73.6 63.1,73.9 C62.9,74.1 62.8,74.3 62.7,74.5 C62.6,74.7 62.6,74.9 62.5,75.2 C61.7,74.2 61.5,74.9 61.6,75 C61.7,75.1 61.7,75.3 61.8,75.4 C61.9,75.5 61.8,75.6 61.6,75.5 C61.4,75.5 61.3,75.3 61.2,75.2 C61.1,75.1 61.2,75 61.2,74.9 C61.3,74.4 61,74.1 60.6,73.9 C60.4,73.8 60.3,73.7 60.1,73.6 C59.8,73.3 59.3,73.4 59,73.7 C58.7,74 58.4,74.1 58,74 C57.1,73.7 56.1,73.5 55.2,73.2 C54.5,73 53.7,72.9 53,72.9 C51.9,72.9 51,72.7 50.3,71.8 C49.9,71.2 49.2,70.9 48.5,70.9 C47.9,70.9 47.5,70.7 47.2,70.2 C46.8,69.5 46.1,69.2 45.4,69.1 C45.4,69.1 45.4,69.1 45.3,69.1 C44.9,69 44.7,69.4 44.8,69.8 C45.1,70.5 44.7,71 44.4,71.6 C44.3,72 44.2,72.4 44.2,72.8 C44.2,73.7 44.3,74.6 44.4,75.5 C44.4,76 44.6,76.5 45,76.8 C46,77.5 46.6,78.6 46.7,79.8 C47,81.4 47.1,83.1 47.4,84.8 C47.5,85.2 47.5,85.6 47.8,85.9 C48.3,86.6 48.4,87.3 48.4,88 C48.4,88.4 48.4,88.7 48.4,89.1 C48.4,89.6 48.4,90.1 48,90.6 C47.9,90.7 47.9,91 47.9,91.1 C48.1,91.2 48.3,91.3 48.5,91.3 C48.6,91.3 48.8,91.1 48.8,91 C48.9,90.8 48.8,90.6 48.8,90.5 C48.9,90.2 49.2,90.1 49.4,90.3 C49.5,90.4 49.5,90.4 49.5,90.5 C49.4,91.2 49.8,91.1 50.2,91 C50.4,91 50.6,91.1 50.7,91.2 C50.8,91.3 50.7,91.6 50.6,91.7 C50.5,91.8 50.3,91.9 50.1,92 C49.7,92.1 49.6,92.3 49.6,92.7 C49.6,92.9 49.3,93.1 49.2,92.9 L49.1,92.8 C49,92.7 49,92.6 49,92.5 C48.9,92.3 48.7,92.3 48.6,92.5 C48.5,92.8 48.5,93.1 48.7,93.4 C48.9,93.8 49.1,94.1 48.8,94.6 C48.7,94.7 48.9,95 49,95.1 C49.4,95.3 49.9,95.3 50.2,95 C50.4,94.7 50.7,94.6 50.9,94.9 C51.1,95.2 51.1,95.8 50.8,95.9 C50.5,96 50.5,96.2 50.5,96.5 C50.5,96.6 50.4,96.8 50.4,96.9 L50.3,96.9 C50.2,96.6 50.2,96.3 50.1,96.1 C50,96.1 50,96.1 49.9,96.1 C49.9,96.3 49.8,96.6 49.9,96.8 C50,97.2 50.2,97.5 50.3,97.9 C50.6,98.8 50.2,100 49.5,100.4 C49.3,99.1 49.2,97.8 49,96.6 C48.9,96.6 48.9,96.6 48.8,96.6 C48.8,96.8 48.7,97 48.7,97.2 C48.7,98 48.8,98.8 48.8,99.7 C48.8,100.2 48.8,100.7 48.5,101.2 C48.4,101.4 48.4,101.6 48.4,101.9 C48.6,101.9 48.8,102 49.1,101.9 C49.6,101.8 50,101.8 50.4,102.3 C50.7,102.7 50.9,102.7 51.2,102.3 C51.3,102.2 51.6,102 51.6,102 C52,102.2 52.1,102 52.3,101.8 C52.4,101.7 52.7,101.6 52.8,101.6 C52.9,101.6 53.1,101.8 53.1,102 C53.2,102.6 53.3,102.7 53.9,102.6 C54.5,102.5 55,102.6 55.4,103.1 C55.6,103.4 55.8,103.7 56,104 C56.2,104.4 56.5,104.5 56.9,104.3 C57.2,104.2 57.5,104 57.8,104 C58.1,104 58.4,104.1 58.7,104.2 C59.1,104.4 59.5,104.8 59.9,105.1 C60.4,105.4 60.8,105.7 60.9,106.2 C61.3,107.7 62,109.2 61.8,110.8 C61.7,112 62.3,112.8 63.3,113.4 C63.8,113.6 64.3,113.8 64.8,113.9 C67,114.3 69,114.1 71,113 C71.6,112.6 72.3,112.4 73,112.3 C74,112.2 75,112.2 76,112.2 C76.8,112.2 77.6,112.3 78.1,113 C78.7,113.7 79.3,113.8 80.1,113.6 C80.3,113.5 80.6,113.5 80.8,113.5 C81.5,113.6 82.1,113.4 82.7,112.8 C83.1,112.4 83.5,112.3 84.1,112.4 C84.8,112.5 85.5,112.6 86.1,112.6 C87.3,112.8 88.5,112.7 89.5,111.9 Z M63.7,89.1 C63.2,89.5 63.1,89.4 62.7,89 C62.6,88.9 62.5,88.8 62.3,88.7 C62.4,88.6 62.5,88.5 62.5,88.5 C62.5,88.1 62.4,87.6 62.4,87.2 C62.4,87 62.5,87.2 62.6,87.1 C62.6,86.8 62.4,86.6 62.2,86.7 C62.1,86.7 61.9,86.9 61.8,87 C61.6,87.2 61.5,87.4 61.4,87.6 C61.3,87.9 61.2,88.3 61.3,88.6 C61.3,88.7 61.4,88.7 61.4,88.8 C61.1,88.8 60.8,88.9 60.5,88.9 C60.3,88.9 60.3,88.7 60.4,88.6 C60.6,88.5 60.9,88.3 60.8,88.2 C60.8,88 60.5,87.9 60.3,87.8 C60.1,87.7 60,87.6 59.8,87.5 C59.7,87.3 59.7,87.4 59.9,87.4 C60.1,87.5 60.3,87.6 60.4,87.6 C60.5,87.6 60.8,87.5 60.8,87.5 C61,86.7 62.2,85.6 62.3,85.9 C62.9,86.8 62.4,87.7 62.6,88.6 C62.7,89 63.2,88.5 63.2,88.1 C63.2,87.7 63.3,87.2 63.4,86.8 C63.4,86.6 63.5,86.4 63.6,86.3 C63.6,86.2 63.7,86.2 63.8,86.3 C63.9,86.8 64,87.2 64.1,87.7 C64.1,87.8 64.3,88 64.3,88 C64.4,88 64.5,88 64.6,87.9 C64.6,88 64.5,88 64.5,88.1 C64.3,88.4 64,88.8 63.7,89.1 Z M90.7,94.3 C90.6,94.4 90.6,94.5 90.5,94.5 L90.2,94.5 L90.5,96.2 C90.5,96.3 90.5,96.5 90.5,96.6 C90.4,96.7 90.4,96.8 90.3,96.8 L87.8,96.8 C87.7,96.8 87.6,96.7 87.6,96.6 C87.5,96.5 87.5,96.3 87.6,96.2 L88.2,94.5 L87.9,94.5 C87.8,94.5 87.7,94.4 87.7,94.3 C87.6,94.2 87.6,94 87.7,93.9 L88.8,90.7 C88.9,90.5 89,90.4 89.2,90.4 C89.4,90.4 89.5,90.5 89.6,90.7 L90.7,93.9 C90.7,94 90.7,94.2 90.7,94.3 Z M86.6,92.1 C86.5,92.3 86.4,92.5 86.4,92.8 C86.3,93 86.3,93.3 86.3,93.5 L86.1,94.2 C86,94.4 86,94.7 86,94.9 L85.8,95.6 C85.7,95.8 85.7,96 85.6,96.1 L85.4,96.6 C85.3,96.8 85.2,96.9 85,97 C84.8,97.1 84.7,97.2 84.5,97.2 C84.3,97.2 84,97.3 83.8,97.3 C83.6,97.3 83.3,97.3 83.1,97.3 L82.4,97.3 C82.2,97.3 81.9,97.3 81.7,97.3 C81.4,97.3 81.2,97.2 81.1,97.1 C80.9,97 80.8,96.8 80.8,96.6 C80.7,96.4 80.6,96.2 80.6,95.9 C80.5,95.7 80.5,95.5 80.4,95.2 C80.3,95 80.3,94.8 80.3,94.5 C80.2,94.3 80.1,94.1 80.1,93.9 C80,93.7 80.1,93.4 80,93.2 C79.9,93 79.8,92.8 79.8,92.6 C79.7,92.4 79.7,92.1 79.6,91.9 C79.5,91.7 79.5,91.4 79.5,91.2 C79.4,91 79.3,90.7 79.3,90.5 C79.2,90.3 79.2,90 79.2,89.8 L78.8,88.4 C78.7,88.2 78.6,88 78.6,87.8 L78.4,87.2 C78.3,87 78.3,86.8 78.2,86.5 C78.1,86.3 78,86.1 78,85.9 C77.9,85.7 78,85.4 77.9,85.2 L77.7,84.6 L77.5,83.9 C77.4,83.7 77.3,83.4 77.3,83.2 C77.2,83 77.2,82.7 77.2,82.5 C77.1,82.3 77,82.1 76.9,81.8 C76.8,81.6 76.9,81.3 76.8,81.1 C76.7,80.9 76.6,80.6 76.6,80.4 C76.5,80.2 76.4,79.9 76.4,79.7 C76.4,79.5 76.3,79.3 76.2,79 L76,78.3 C75.9,78.1 76,77.8 75.9,77.6 L75.7,76.9 C75.6,76.7 75.5,76.4 75.5,76.2 C75.5,76 75.5,75.9 75.5,75.7 C75.5,75.6 75.6,75.5 75.7,75.4 C75.8,75.3 76.4,75 77.4,75.1 C78.2,75.2 78.6,75.1 78.9,75.2 C79.1,75.3 79.2,75.4 79.3,75.6 L81.6,84.1 C81.6,84.3 81.7,84.5 81.7,84.6 C81.7,84.7 81.7,84.7 81.7,84.8 C81.8,85 81.8,85.3 81.9,85.5 C82,85.7 82.1,85.9 82.1,86.1 C82.1,86.3 82.2,86.6 82.2,86.8 C82.3,87.1 82.4,87.4 82.6,87.7 C82.8,88 83.1,88.1 83.4,87.7 L83.5,87.6 C83.6,87.5 83.7,87.3 83.7,87.2 C83.8,87 83.8,86.8 83.9,86.5 C84,86.3 84,86.1 84.1,85.9 C84.2,85.7 84.2,85.5 84.3,85.3 L84.5,84.7 C84.6,84.5 84.6,84.3 84.6,84.1 L85,82.4 L85.7,79.7 L85.7,79.6 C85.7,79.6 85.7,79.6 85.6,79.6 L86,78.1 C86.1,77.9 86.1,77.7 86.2,77.5 L86.4,76.9 C86.5,76.6 86.6,76.4 86.7,76 C86.8,75.8 86.8,75.6 87,75.5 C87,75.5 87.1,75.4 87.2,75.4 C87.3,75.4 87.4,75.3 87.6,75.3 C87.6,75.3 89.7,75 90.4,75.4 C90.6,75.5 90.7,75.5 90.7,75.7 C90.7,75.8 90.8,75.8 90.8,75.9 C90.8,75.9 91,76.5 91.2,77.4 L91.2,77.5 L91.2,77.6 C91.4,78.4 91.7,79.3 92,80.3 C92,80.4 92,80.5 92.1,80.5 C92.1,80.6 92.2,80.7 92.2,80.9 L92.2,81 C92.2,81.1 92.3,81.2 92.3,81.3 L92.3,81.4 L92.3,81.5 C92.3,81.6 92.4,81.7 92.4,81.8 C92.4,81.8 92.4,81.8 92.4,81.9 C92.4,82 92.5,82.1 92.5,82.2 C92.5,82.2 92.5,82.2 92.5,82.3 C92.7,83 92.9,83.7 92.9,84.1 C92.9,84.1 92.9,84.1 92.9,84.2 C92.9,84.3 92.9,84.3 92.9,84.4 C92.9,84.6 93,84.8 93,84.9 C93,85 93,85 93,85.1 C93.1,85.3 93.1,85.6 93.2,85.8 C93.3,86 93.4,86.2 93.4,86.4 C93.4,86.6 93.5,86.9 93.5,87.1 C93.6,87.4 93.7,87.7 93.9,88 C94.1,88.3 94.4,88.4 94.7,88 L94.8,87.9 C94.9,87.8 95,87.6 95,87.5 C95.1,87.3 95.1,87.1 95.2,86.8 C95.3,86.6 95.3,86.4 95.4,86.2 C95.4,86.1 95.5,86 95.5,85.8 C95.5,85.6 95.6,85.5 95.6,85.3 C95.7,85.1 95.7,84.8 95.8,84.6 L96,83.9 L96.2,83.2 L96.4,82.5 L96.6,81.8 C96.7,81.6 96.8,81.3 96.8,81.1 L97,80.4 C97,80.3 97.1,80.2 97.1,80.1 L97.3,79.3 C97.3,79.2 97.3,79.1 97.4,78.9 L97.6,78.2 C97.7,78 97.7,77.7 97.7,77.5 L97.9,76.8 C98,76.6 98,76.4 98.1,76.3 L98.3,75.8 C98.4,75.6 98.5,75.5 98.7,75.4 C98.9,75.3 99,75.2 99.2,75.2 C99.4,75.2 99.7,75.1 99.9,75.1 C100.1,75.1 100.4,75.1 100.6,75.1 L101.3,75.1 C101.5,75.1 101.8,75.1 102,75.1 C102.3,75.1 102.5,75.2 102.6,75.3 C102.8,75.4 102.9,75.6 102.9,75.8 C103,76 103.1,76.2 103.1,76.5 C103.2,76.7 103.2,76.9 103.3,77.2 C103.4,77.4 103.4,77.6 103.4,77.9 C103.5,78.1 103.6,78.3 103.6,78.5 C103.7,78.7 103.6,79 103.7,79.2 C103.8,79.4 103.9,79.6 103.9,79.8 C104,80 104,80.3 104.1,80.5 C104.2,80.7 104.2,81 104.2,81.2 C104.3,81.4 104.4,81.7 104.4,81.9 C104.5,82.1 104.5,82.4 104.5,82.6 L104.9,84 C105,84.2 105.1,84.4 105.1,84.6 L105.3,85.2 C105.4,85.4 105.4,85.6 105.5,85.9 C105.6,86.1 105.7,86.3 105.7,86.5 C105.8,86.7 105.7,87 105.8,87.2 L106,87.8 L106.2,88.5 C106.3,88.7 106.4,89 106.4,89.2 C106.5,89.4 106.5,89.7 106.5,89.9 C106.6,90.1 106.8,91.1 106.9,91.3 C107,91.5 107.1,91.8 107.1,92 C107.2,92.2 108.4,96.4 108.4,96.6 C108.4,96.8 108.4,96.9 108.4,97.1 C108.3,97.3 108.3,97.4 108.1,97.5 C107.9,97.6 107.8,97.6 107.6,97.6 C107.2,97.6 105.2,97.6 105,97.6 C104.8,97.5 104.7,97.4 104.6,97.2 C104.6,97.2 104.2,96.1 103.9,95.2 L103.9,95 L103.9,94.9 C103.7,94.3 103.5,93.7 103.3,93 L102.8,93 C102.6,93 101,93.1 101,93.1 L100.1,92.7 L97.9,92.7 C97.9,92.9 97.9,93.1 97.8,93.3 L97.6,94 C97.5,94.2 97.5,94.5 97.5,94.7 L97.3,95.4 C97.2,95.6 97.2,95.8 97.1,95.9 L96.9,96.4 C96.8,96.6 96.7,96.7 96.5,96.8 C96.3,96.9 96.2,97 96,97 C95.8,97 95.5,97.1 95.3,97.1 C95.1,97.1 94.8,97.1 94.6,97.1 L94,97.1 C93.8,97.1 93.5,97.1 93.3,97.1 C93,97.1 92.8,97 92.7,96.9 C92.5,96.8 92.4,96.6 92.4,96.4 C92.3,96.2 92.2,96 92.2,95.7 C92.1,95.5 92.1,95.3 92,95 C91.9,94.8 91.9,94.6 91.9,94.3 C91.8,94.1 91.7,93.9 91.7,93.7 C91.6,93.5 91.7,93.2 91.6,93 C91.5,92.8 91.4,92.6 91.4,92.4 C91.3,92.2 91.3,91.9 91.2,91.7 C91.1,91.5 91.1,91.2 91.1,91 C91,90.8 90.9,90.5 90.9,90.3 C90.8,90.1 90.8,89.8 90.8,89.6 L90.4,88.2 C90.3,88 90.2,87.8 90.2,87.6 L90,87 C89.9,86.8 89.9,86.6 89.8,86.3 L89.8,86.2 C89.8,86.2 89.8,86.1 89.7,86 C89.7,85.9 89.6,85.8 89.6,85.7 L89.6,85.6 C89.4,85 89.3,85 89.3,85 C89.3,85 89.3,85 89.1,85 C88.9,85 88.5,85.5 88.5,85.5 C88.5,85.6 88.5,85.7 88.4,85.8 C88.3,86 88.2,86.2 88.2,86.5 C88.1,86.7 88.1,87 88,87.2 C87.9,87.4 87.9,87.7 87.8,87.9 L87.6,88.6 L87.4,89.3 L87.2,90 L87,90.7 C86.9,90.9 86.8,91.2 86.8,91.4 L86.6,92.1 Z" id="Shape"></path><path d="M66.9,77.7 C67,78 67.2,78.1 67.4,77.9 C67.8,77.6 68,76.5 67.7,76.1 C67.4,75.7 67,75.4 66.6,75.1 C66.4,74.8 66.5,75.8 66.3,75.8 C66.2,75.6 66.1,75.5 66.1,75.3 C66,74.8 66,74.4 66,73.9 C66,73.5 65.5,73.1 65,73.2 C64.5,73.3 64.7,73.7 64.7,74 C64.7,74.2 64.9,74.4 65.1,74.2 C65.4,74 65.5,74.1 65.5,74.4 C65.5,74.7 65.5,75.1 65.4,75.4 C65.4,76 65.8,76.6 66.4,76.5 C67,76.4 67,76.4 66.9,77.1 C66.9,77.4 66.8,77.5 66.9,77.7 Z" id="Path"></path><path d="M66.6,71.8 C66.6,71.7 66.4,71.4 66.2,71.3 C65.9,71.1 65.6,70.9 65.6,70.5 C65.6,70.4 65.4,70.2 65.3,70.2 C65.1,70.2 65.1,70.4 65,70.5 C64.9,70.8 64.8,71.1 64.6,71.4 C64.2,71.9 64,72.4 64,73 C64,73.3 64.7,72.7 65,72.5 C65.3,72.2 65.6,72 66,72 C66.2,72 66.6,71.9 66.6,71.8 Z" id="Path"></path><path d="M60.5,66.9 C60.4,67.1 60.3,67.2 60.3,67.4 C60.3,67.5 60.3,67.7 60.2,67.8 C59.8,68.1 60.2,68.1 60.5,68.3 C60.7,68.4 60.9,68.5 60.9,68.7 C61.2,69.4 62.3,69.6 62.1,69.2 C61.7,68.5 61.4,67.8 61,67.2 C60.9,67.1 60.6,66.8 60.5,66.9 Z" id="Path"></path><path d="M63.2,69.7 C63.3,69.7 63.5,69.5 63.4,69.4 C63.3,69.3 63,69.1 63,69 C63,68.8 63.1,68.6 63.1,68.4 C63.2,68.3 63.1,68 63,68 C62.9,67.9 62.6,68.1 62.5,68.3 C62.1,68.7 62.2,69.2 62.6,69.5 C62.7,69.6 63,69.7 63.2,69.7 Z" id="Path"></path><path d="M63.1,67.2 C63.2,66.8 63.2,66.4 62.7,66.4 C62.6,66.4 62.2,66.7 62.2,66.8 C62.2,67.4 63,67.5 63.1,67.2 Z" id="Path"></path><path d="M65.2,65.5 C65,65.5 65,65.9 65.1,66 C65.2,66.4 66.3,66.3 65.9,66.1 C65.7,65.9 65.4,65.7 65.2,65.5 Z" id="Path"></path><path d="M65.9,68.3 C66,68.3 66.2,68.4 66.2,68.3 C66.3,68.2 66.3,68 66.2,68 C66,67.8 65.8,67.6 65.5,67.4 C65.2,67.1 65.6,68.2 65.9,68.3 Z" id="Path"></path><path d="M63.5,88.4 C63.5,88.6 63.6,89.1 63.8,88.9 C63.9,88.8 64,88.7 64.2,88.5 C64,88.3 63.9,88.2 63.8,88.1 C63.7,87.9 63.5,88.3 63.5,88.4 Z" id="Path"></path><path d="M100.1,88.3 C100.3,88.3 100.4,88.3 100.6,88.3 C100.8,88.3 100.9,88.3 101.1,88.3 C101.3,88.3 101.4,88.4 101.6,88.4 C101.8,88.4 101.9,88.4 102.1,88.4 C102.2,88.4 102.2,88.4 102.3,88.4 C102.2,88.1 102.2,87.9 102.2,87.7 C102.3,87.5 102.3,87.4 102.3,87.4 C102.3,87.2 102.2,87 102.2,86.9 C102.2,86.8 102.2,86.8 102.2,86.7 C102.1,86.5 102.1,86.2 102,86 C101.9,85.8 101.8,85.6 101.8,85.4 C101.8,85.2 101.7,84.9 101.7,84.7 C101.6,84.4 101.5,84.1 101.3,83.8 C101.3,83.7 101.2,83.7 101.2,83.6 C101,83.4 100.8,83.5 100.6,83.8 C100.6,83.8 100.6,83.8 100.5,83.9 C100.4,84.1 100.3,84.3 100.3,84.5 C100.2,84.7 100.2,85 100.1,85.2 C100,85.4 99.9,85.6 99.9,85.9 C99.8,86.1 99.8,86.4 99.7,86.6 C99.6,86.8 99.6,87.1 99.5,87.3 L99.3,88 L99.2,88.3 C99.3,88.3 99.5,88.3 99.6,88.3 C99.8,88.3 99.9,88.3 100.1,88.3 Z" id="Path"></path><path d="M172.9,87.9 L151.4,87.9 C150.8,87.9 150.4,88.3 150.4,88.9 C150.4,89.5 150.8,89.9 151.4,89.9 L172.9,89.9 C173.5,89.9 173.9,89.5 173.9,88.9 C173.9,88.3 173.5,87.9 172.9,87.9 Z" id="Path"></path><path d="M24.1,88.9 C24.1,88.3 23.7,87.9 23.1,87.9 L1.6,87.9 C1,87.9 0.6,88.3 0.6,88.9 C0.6,89.5 1,89.9 1.6,89.9 L23.1,89.9 C23.7,89.9 24.1,89.5 24.1,88.9 Z" id="Path"></path></g></g></svg>